# xmcd
#
# Track frame offsets: 
#        150
#        19895
#        47300
#        70535
#        96790
#        120787
#        146945
#        173577
#        202600
#        227620
#
# Disc length: 3383 seconds
#
# Revision: 0
# Processed by: cddbd v1.5.2PL0 Copyright (c) Steve Scherf et al.
# Submitted via: ExactAudioCopy v0.99pb4
#
DISCID=6f0d350a
DTITLE=Quadripart - Emotional Travellog
DYEAR=1994
DGENRE=A Cappella
TTITLE0=Serenity
TTITLE1=Joy
TTITLE2=Fear
TTITLE3=Anger
TTITLE4=Envy
TTITLE5=Lust
TTITLE6=Jealousy
TTITLE7=Security
TTITLE8=Greed
TTITLE9=Love
EXTD=
EXTT0=
EXTT1=
EXTT2=
EXTT3=
EXTT4=
EXTT5=
EXTT6=
EXTT7=
EXTT8=
EXTT9=
PLAYORDER=
